<svg clip-rule="evenodd" fill-rule="evenodd" height="512" image-rendering="optimizeQuality" shape-rendering="geometricPrecision" text-rendering="geometricPrecision" viewBox="0 0 2666.66 2666.66" width="512" xmlns="http://www.w3.org/2000/svg" xmlns:xodm="http://www.corel.com/coreldraw/odm/2003"><g id="Layer_x0020_1"><circle cx="1333.33" cy="1333.33" fill="#c7ceea" r="1333.33"/><path d="m1973.6 2011.3h-1280.54c-54.14 0-98.19-44.06-98.19-98.19v-750.24c0-11.04 8.96-20 20-20h1436.92c11.04 0 20 8.96 20 20v750.25c.02 54.14-44.06 98.18-98.19 98.18zm-1338.74-828.43v730.25c0 32.1 26.11 58.18 58.19 58.18h1280.54c32.1 0 58.19-26.1 58.19-58.18v-730.26h-1396.92z"/><path d="m2166.65 1182.87h-1666.65c-11.04 0-20-8.96-20-20v-180.83c0-11.04 8.96-20 20-20h1666.65c11.04 0 20 8.96 20 20v180.83c0 11.04-8.96 20-20 20zm-1646.65-40h1626.65v-140.83h-1626.65z"/><path d="m1929.6 2133.49h-245.61c-11.04 0-20-8.97-20-20v-122.19c0-11.04 8.97-20 20-20h245.61c11.04 0 20 8.97 20 20v122.19c0 11.04-8.96 20-20 20zm-225.61-40.02h205.59v-82.18h-205.59z"/><path d="m982.65 2133.49h-245.59c-11.04 0-20-8.97-20-20v-122.19c0-11.04 8.96-20 20-20h245.59c11.04 0 20 8.97 20 20v122.19c0 11.04-8.94 20-20 20zm-225.59-40.02h205.59v-82.18h-205.59z"/><path d="m1957.71 1002.04h-151.5c-11.04 0-20-8.96-20-20v-400c0-26.93 21.93-48.86 48.87-48.86h93.79c26.93 0 48.86 21.92 48.86 48.86v400.01c-.03 11.04-8.98 20-20.03 20zm-131.5-40h111.48v-380c0-4.8-4.04-8.86-8.84-8.86h-93.79c-4.8 0-8.86 4.06-8.86 8.86v380z"/><path d="m2081.14 677.04h-398.35c-26.33 0-26.32-40 0-40h398.35c26.33 0 26.33 40 0 40z"/><path d="m2081.14 787.61h-398.35c-26.33 0-26.32-40 0-40h398.35c26.33 0 26.33 40 0 40z"/><path d="m2081.14 898.16h-398.35c-26.33 0-26.32-40 0-40h398.35c26.33 0 26.33 40 0 40z"/><path d="m1409.08 1002.04h-151.5c-11.04 0-20-8.96-20-20v-400c0-26.93 21.92-48.86 48.86-48.86h93.77c26.93 0 48.88 21.92 48.88 48.86v400.01c0 11.04-8.97 20-20.02 20zm-131.5-40h111.5v-380c0-4.8-4.06-8.86-8.86-8.86h-93.77c-4.8 0-8.86 4.06-8.86 8.86v380z"/><path d="m1532.49 677.04h-398.32c-26.33 0-26.33-40 0-40h398.32c26.33 0 26.33 40 0 40z"/><path d="m1532.49 787.61h-398.32c-26.33 0-26.33-40 0-40h398.32c26.33 0 26.33 40 0 40z"/><path d="m1532.49 898.16h-398.32c-26.33 0-26.33-40 0-40h398.32c26.33 0 26.33 40 0 40z"/><path d="m860.45 1002.04h-151.51c-11.04 0-20-8.96-20-20v-400c0-26.93 21.91-48.86 48.84-48.86h93.8c26.93 0 48.86 21.92 48.86 48.86v400.01c.02 11.04-8.94 20-19.98 20zm-131.51-40h111.5v-380c0-4.8-4.06-8.86-8.86-8.86h-93.79c-4.8 0-8.85 4.06-8.85 8.86z"/><path d="m983.87 677.04h-398.35c-26.33 0-26.33-40 0-40h398.35c26.32 0 26.34 40 0 40z"/><path d="m983.87 787.61h-398.35c-26.33 0-26.33-40 0-40h398.35c26.32 0 26.34 40 0 40z"/><path d="m983.87 898.16h-398.35c-26.33 0-26.33-40 0-40h398.35c26.32 0 26.34 40 0 40z"/><path d="m1658.35 1834.17h-650.05c-11.04 0-20-8.97-20-20v-522.97c0-11.04 8.96-20 20-20h650.05c11.04 0 20 8.96 20 20v522.96c.01 11.04-8.96 20.01-20 20.01zm-630.05-40.01h610.05v-482.96h-610.05z"/><path d="m750.49 1834.17c-11.04 0-20-8.97-20-20v-522.97c0-26.33 40-26.33 40 0v522.96c0 11.04-8.94 20.01-20 20.01z"/><path d="m872.69 1834.17c-11.04 0-20-8.97-20-20v-522.97c0-26.33 40-26.33 40 0v522.96c-.02 11.04-8.96 20.01-20 20.01z"/><path d="m1793.98 1834.17c-11.04 0-20-8.97-20-20v-522.97c0-26.33 40-26.33 40 0v522.96c0 11.04-8.96 20.01-20 20.01z"/><path d="m1916.17 1834.17c-11.04 0-20-8.97-20-20v-522.97c0-26.33 40-26.33 40 0v522.96c0 11.04-8.95 20.01-20 20.01z"/><path d="m1234.46 1749.7c-12.4 0-24.39-11.77-18.22-28.96l35.5-123.07c-16.73-.33-89.31 7.06-71.25-29.85l98.22-200.93c3.35-6.86 10.32-11.22 17.96-11.22h124.39c15.56 0 25.18 17.09 17.1 30.39l-61.02 100.4 94.17 14.57c16.91 2.61 22.92 24.04 9.83 35.06-100.34 84.53-212.19 181.86-228.08 201.02-3.97 6.69-8.04 12.58-18.6 12.58zm-4.29-192.47c85.35 1.7 76.52-5.75 44.88 103.97 43.26-39.04 102.28-89.61 146.78-127.36-128.16-19.85-118.44-3.04-36.33-138.17h-76.33l-78.99 161.55z"/><path d="m614.87 1142.87h1531.78v-140.83h-1626.64v140.83z" fill="#494554"/><g fill="#c1cce6"><path d="m1826.2 962.04h111.49v-63.88h-111.49z"/><path d="m1826.2 858.16h111.49v-70.55h-111.49z"/><path d="m1826.2 747.61h111.49v-70.57h-111.49z"/><path d="m1826.2 637.04h111.49v-55.01c0-4.8-4.04-8.86-8.84-8.86h-93.79c-4.8 0-8.86 4.06-8.86 8.86z"/><path d="m1389.08 637.04v-55.01c0-4.8-4.06-8.86-8.86-8.86h-93.77c-4.8 0-8.86 4.06-8.86 8.86v55.01h111.5z"/><path d="m1389.08 677.04h-111.5v70.57h111.5z"/><path d="m1389.08 787.61h-111.5v70.55h111.5z"/><path d="m1389.08 898.16h-111.5v63.88h111.5z"/><path d="m840.43 962.04v-63.88h-111.49v63.88z"/><path d="m728.94 858.16h111.49v-70.55h-111.49z"/><path d="m728.94 747.61h111.49v-70.57h-111.49z"/><path d="m728.94 637.04h111.49v-55.01c0-4.8-4.06-8.86-8.86-8.86h-93.79c-4.8 0-8.85 4.06-8.85 8.86v55.01z"/></g><path d="m2031.78 1182.87h-1396.92v730.25c0 32.1 26.11 58.18 58.19 58.18h1280.54c32.1 0 58.19-26.1 58.19-58.18v-730.26zm-1179.09 108.33c0-26.33 40-26.33 40 0v522.96c-.02 26.35-40 26.33-40 .01zm135.62 522.97v-522.97c0-11.04 8.96-20 20-20h650.05c11.04 0 20 8.96 20 20v522.96c.01 11.04-8.96 20.01-20 20.01h-650.05c-11.04 0-20-8.97-20-20zm785.67 0v-522.97c0-26.33 40-26.33 40 0v522.96c0 26.35-40 26.33-40 .01zm142.19 20c-11.04 0-20-8.97-20-20v-522.97c0-26.33 40-26.33 40 0v522.96c0 11.04-8.95 20.01-20 20.01zm-1145.67-542.97v522.96c0 26.35-40 26.33-40 .01v-522.97c0-26.33 40-26.33 40 0z" fill="#5a5567"/><path d="m1638.35 1311.2h-610.05v482.96h610.05zm-457.87 256.63 98.22-200.93c3.35-6.86 10.32-11.22 17.96-11.22h124.39c15.56 0 25.18 17.09 17.1 30.39l-61.02 100.4 94.17 14.57c16.91 2.61 22.92 24.04 9.83 35.06-100.34 84.53-212.19 181.86-228.08 201.02-3.97 6.69-8.04 12.58-18.6 12.58-12.4 0-24.39-11.77-18.22-28.96l35.5-123.07c-29.25-.58-61.38 4.07-70.36-10.64-3.55-5.82-3.9-13.06-.89-19.2z" fill="#d6e3ff"/><path d="m1385.49 1395.68h-76.33l-78.99 161.55c85.35 1.7 76.52-5.75 44.88 103.97 43.26-39.04 102.28-89.61 146.78-127.36-128.15-19.84-118.44-3.04-36.33-138.17z" fill="#ffb800"/><path d="m962.65 2011.3h-205.59v82.18h205.59z" fill="#494554"/><path d="m1703.99 2011.3v82.18h205.6v-82.18z" fill="#494554"/></g></svg>