<svg width="1000px" height="1000px" xmlns="http://www.w3.org/2000/svg" version="1.1">
	<text x="887.975432" y="360.942353" fill="rgb(0,0,0)" font-size="20" font-family="Verdana">C2H2</text>
	<text x="490.000000" y="80.000000" fill="rgb(0,0,0)" font-size="20" font-family="Verdana">H2</text>
	<text x="72.024568" y="360.942353" fill="rgb(0,0,0)" font-size="20" font-family="Verdana">C2H6</text>
	<text x="235.496636" y="864.057647" fill="rgb(0,0,0)" font-size="20" font-family="Verdana">CH4</text>
	<text x="714.503364" y="864.057647" fill="rgb(0,0,0)" font-size="20" font-family="Verdana">C2H4</text>
	<polygon points="500.000000,255.000000 500.000000,170.000000 490.000000,170.000000 490.000000,255.000000" fill="rgb(63,164,91)" stroke-width="1" stroke="rgb(0,0,0)"/>
	<polygon points="500.000000,95.000000 890.000000,370.000000 827.000000,565.000000 540.000000,340.000000 500.000000,485.000000" fill="rgb(113,201,137)" stroke-width="1" stroke="rgb(0,0,0)"/>
	<polygon points="490.000000,520.000000 500.000000,485.000000 540.000000,340.000000 827.000000,565.000000 749.000000,800.000000" fill="rgb(245,176,77)" stroke-width="1" stroke="rgb(0,0,0)"/>
	<polygon points="500.000000,255.000000 490.000000,255.000000 490.000000,170.000000 500.000000,170.000000 500.000000,95.000000 119.000000,380.000000 145.000000,470.000000 500.000000,485.000000" fill="rgb(248,204,140)" stroke-width="1" stroke="rgb(0,0,0)"/>
	<polygon points="740.000000,830.000000 749.000000,800.000000 490.000000,520.000000 465.000000,530.000000 555.000000,830.000000" fill="rgb(222,137,13)" stroke-width="1" stroke="rgb(0,0,0)"/>
	<polygon points="555.000000,830.000000 465.000000,530.000000 390.000000,580.000000 260.000000,830.000000" fill="rgb(147,10,10)" stroke-width="1" stroke="rgb(0,0,0)"/>
	<polygon points="260.000000,830.000000 390.000000,580.000000 465.000000,530.000000 490.000000,520.000000 500.000000,485.000000 145.000000,470.000000" fill="rgb(198,122,12)" stroke-width="1" stroke="rgb(0,0,0)"/>
</svg>