<svg width="1000px" height="1000px" xmlns="http://www.w3.org/2000/svg" version="1.1">
	<defs> <marker id="arrow" viewBox="0 0 10 10" refX="5" refY="5" markerWidth="20" markerHeight="20" orient="auto-start-reverse" fill="rgb(255, 255, 255)" stroke-width="1" stroke="rgb(0, 0, 0)"> <path d="M 0 0 L 10 5 L 0 10 z"/> </marker> </defs>
	<text x="887.975432" y="360.942353" fill="rgb(0,0,0)" font-size="20" font-family="Verdana">C2H2</text>
	<text x="490.000000" y="80.000000" fill="rgb(0,0,0)" font-size="20" font-family="Verdana">H2</text>
	<text x="72.024568" y="360.942353" fill="rgb(0,0,0)" font-size="20" font-family="Verdana">C2H6</text>
	<text x="235.496636" y="864.057647" fill="rgb(0,0,0)" font-size="20" font-family="Verdana">CH4</text>
	<text x="714.503364" y="864.057647" fill="rgb(0,0,0)" font-size="20" font-family="Verdana">C2H4</text>
	<polygon points="500.000000,255.000000 500.000000,170.000000 490.000000,170.000000 490.000000,255.000000" fill="rgb(63,164,91)" stroke-width="1" stroke="rgb(0,0,0)"/>
	<polygon points="500.000000,95.000000 890.000000,370.000000 827.000000,565.000000 540.000000,340.000000 500.000000,485.000000" fill="rgb(113,201,137)" stroke-width="1" stroke="rgb(0,0,0)"/>
	<polygon points="490.000000,520.000000 500.000000,485.000000 540.000000,340.000000 827.000000,565.000000 749.000000,800.000000" fill="rgb(245,176,77)" stroke-width="1" stroke="rgb(0,0,0)"/>
	<polygon points="500.000000,255.000000 490.000000,255.000000 490.000000,170.000000 500.000000,170.000000 500.000000,95.000000 119.000000,380.000000 145.000000,470.000000 500.000000,485.000000" fill="rgb(248,204,140)" stroke-width="1" stroke="rgb(0,0,0)"/>
	<polygon points="740.000000,830.000000 749.000000,800.000000 490.000000,520.000000 465.000000,530.000000 555.000000,830.000000" fill="rgb(222,137,13)" stroke-width="1" stroke="rgb(0,0,0)"/>
	<polygon points="555.000000,830.000000 465.000000,530.000000 390.000000,580.000000 260.000000,830.000000" fill="rgb(147,10,10)" stroke-width="1" stroke="rgb(0,0,0)"/>
	<polygon points="260.000000,830.000000 390.000000,580.000000 465.000000,530.000000 490.000000,520.000000 500.000000,485.000000 145.000000,470.000000" fill="rgb(198,122,12)" stroke-width="1" stroke="rgb(0,0,0)"/>
	<polyline points="459.550208,558.704306 473.709673,537.308621" stroke-width="1" stroke="rgb(0,0,0)"/>
	<polyline points="445.390743,580.099990 459.550208,558.704306" stroke-width="1" stroke="rgb(0,0,0)" marker-end="url(#arrow)"/>
	<polyline points="490.641474,534.145062 507.573276,530.981503" stroke-width="1" stroke="rgb(0,0,0)"/>
	<polyline points="473.709673,537.308621 490.641474,534.145062" stroke-width="1" stroke="rgb(0,0,0)" marker-end="url(#arrow)"/>
	<polyline points="497.809557,528.739038 488.045839,526.496574" stroke-width="1" stroke="rgb(0,0,0)"/>
	<polyline points="507.573276,530.981503 497.809557,528.739038" stroke-width="1" stroke="rgb(0,0,0)" marker-end="url(#arrow)"/>
	<circle cx="445.390743" cy="580.099990" r="10" fill="rgb(255,255,255)" stroke-width="1" stroke="rgb(0,0,0)"/>
	<circle cx="473.709673" cy="537.308621" r="10" fill="rgb(255,255,255)" stroke-width="1" stroke="rgb(0,0,0)"/>
	<circle cx="507.573276" cy="530.981503" r="10" fill="rgb(255,255,255)" stroke-width="1" stroke="rgb(0,0,0)"/>
	<circle cx="488.045839" cy="526.496574" r="10" fill="rgb(255,255,255)" stroke-width="1" stroke="rgb(0,0,0)"/>
</svg>