<svg clip-rule="evenodd" fill-rule="evenodd" height="1.707in" image-rendering="optimizeQuality" shape-rendering="geometricPrecision" text-rendering="geometricPrecision" viewBox="0 0 1.70666 1.70666" width="1.707in" xmlns="http://www.w3.org/2000/svg"><g id="Layer_x0020_1"><g fill="#ffba00"><path d="m1.13756 1.30881c.0164567-.028752.0165-.0628346.0001378-.0911811l-.178606-.30935c-.0164291-.0284488-.046-.0454173-.0791102-.0454173-.0331142 0-.0626811.0169685-.0790984.0454016l-.178602.30935c-.00807087.0139843-.0119331.0285315-.0121378.0457795 0 .0505827.0400394.0906496.0911535.091h.357236c.0338228-.00027559.0626063-.0168858.0790276-.0455827zm-.165819-.134004-.0699134.121122c-.00984646.0170906-.0282362.0277165-.0479843.0277165-.00962598 0-.0191378-.00255512-.0275118-.00735039-.0128031-.00735827-.0219843-.0192756-.0258307-.0335276-.00384646-.0142598-.00191732-.0291772.00544488-.0419724l.0242205-.0419567c-.0186417-.00138976-.0347244-.0115118-.0440591-.0276693-.01-.0173307-.01-.0380157 0-.0553465l.0838622-.145067c.00987402-.0170709.0282638-.0276378.0479567-.0276378.00970472 0 .0192913.00258268.0277047.00745669.0264055.0153071.0354606.0492323.0201693.0756535l-.0358071.0620236c.028685.00208661.0514016.0261024.0514016.0552913 0 .011248-.00333071.0220276-.00965354.0312638z"/><path d="m.810681 1.55411h-.138638-.138638-.13863-.127295c-.0383701 0-.0695945.0312205-.0695945.0695945v.069l1.3636.00061024c.00029134 0 .0006063-.00030709.0006063-.00061024v-.069c0-.038374-.0312205-.0695945-.0695945-.0695945h-.127276-.13865-.138622-.13865-.138622z"/><path d="m.810681.663138h.138622.13865.138638.138634.127276l.00072047.00001575h.0678346c.00054331 0 .00103937-.00051181.00103937-.00105512v-.13711c0-.00053937-.00049606-.00103937-.00103937-.00103937l-1.36211-.00000394c-.00053937 0-.00105512.00051575-.00105512.00103937v.13711c0 .00053937.00051575.00105512.00105512.00105512h.0679213l.00061811-.00001181h.127295.138622.138646.138638z"/><path d="m.234469.210228h.158028c.00929134 0 .0168622-.00755118.0168622-.0168583 0-.00930709-.00755512-.0168622-.0168622-.0168622h-.0790276-.079c-.00929134 0-.0168465.00755512-.0168465.0168622 0 .00930709.00755512.0168583.0168465.0168583z"/><path d="m.39248.250228h-.158012c-.00929134 0-.0168465.00755512-.0168465.0168622 0 .00930709.00755512.0168583.0168465.0168583h.158028c.00929134 0 .0168622-.00755118.0168622-.0168425 0-.00930709-.00755512-.016878-.016878-.016878z"/><path d="m.39248.323949h-.158012c-.00929134 0-.0168465.00755512-.0168465.0168622 0 .00930709.00755512.0168583.0168465.0168583h.158028c.00929134 0 .0168622-.00755118.0168622-.0168583 0-.00930709-.00755512-.0168622-.016878-.0168622z"/><path d="m.333386.397685h-.039807v.08626h.039807z"/><path d="m.671268.397685v.08626h.039787v-.08626z"/><path d="m.612142.357669h.158028c.00929134 0 .0168583-.00755118.0168583-.0168583 0-.00930709-.00755118-.0168622-.0168583-.0168622h-.158028c-.00929134 0-.0168465.00755512-.0168465.0168622 0 .00930709.00755512.0168583.0168465.0168583z"/><path d="m.612142.283949h.158028c.00929134 0 .0168583-.00755118.0168583-.0168425 0-.00930709-.00755118-.016878-.0168583-.016878h-.158028c-.00929134 0-.0168465.00755512-.0168465.0168622 0 .00930709.00755512.0168583.0168465.0168583z"/><path d="m.612142.210228h.158028c.00929134 0 .0168583-.00755118.0168583-.0168583 0-.00930709-.00755118-.0168622-.0168583-.0168622h-.0790118-.0790157c-.00929134 0-.0168465.00755512-.0168465.0168622 0 .00930709.00755512.0168583.0168465.0168583z"/><path d="m1.04894.397685v.08626h.03978v-.08626z"/><path d="m.989819.357669h.158024c.00930709 0 .0168583-.00755118.0168583-.0168583 0-.00930709-.00755118-.0168622-.0168583-.0168622h-.158024c-.00929134 0-.0168465.00755512-.0168465.0168622 0 .00930709.00755512.0168583.0168465.0168583z"/><path d="m.989819.283949h.158024c.00930709 0 .0168583-.00755118.0168583-.0168425 0-.00930709-.00755118-.016878-.0168583-.016878h-.158024c-.00929134 0-.0168465.00755512-.0168465.0168622 0 .00930709.00755512.0168583.0168465.0168583z"/><path d="m.989819.210228h.158024c.00930709 0 .0168583-.00755118.0168583-.0168583 0-.00930709-.00755118-.0168622-.0168583-.0168622h-.0790039-.0790197c-.00929134 0-.0168465.00755512-.0168465.0168622 0 .00930709.00755512.0168583.0168465.0168583z"/><path d="m1.42663.397685v.08626h.03977v-.08626z"/><path d="m1.367516.3576695h.158024c.00929134 0 .0168465-.00755118.0168465-.0168583 0-.00930709-.00755512-.0168622-.0168543-.0168622h-.158031c-.00929921.00000787-.0168425.00755906-.0168425.0168622 0 .00930709.00755118.0168583.0168583.0168583z"/><path d="m1.367516.2839485h.158024c.00929134 0 .0168465-.00755118.0168465-.0168425 0-.00930709-.00755512-.016878-.0168543-.016878h-.158031c-.00929921.00000787-.0168425.00755906-.0168425.0168622 0 .00930709.00755118.0168583.0168583.0168583z"/><path d="m1.36752.210228h.158024c.00929134 0 .0168465-.00755118.0168465-.0168583 0-.00930709-.00755512-.0168622-.0168465-.0168622h-.0790197-.0790039c-.00930709 0-.0168583.00755512-.0168583.0168622 0 .00930315.00754331.0168504.0168583.0168583z"/></g><path d="m1.31856 1.48742v-.0585551c0-.0110394.0089685-.02.02-.02.0110276 0 .02.00897244.02.02v.0585551h.0872756v-.810929h-.0872756v.0585827c0 .0110551-.00897244.02-.02.02-.0110394 0-.02-.00896063-.02-.02v-.0585827h-.0986339v.0585827c.00001181.0110551-.00896063.02-.02.02-.0110394 0-.02-.00896063-.02-.02v-.0585827h-.0986378v.0585827c0 .0110551-.00895669.02-.02.02-.0110394 0-.02-.00896063-.02-.02v-.0585827h-.0986496v.0585827c.00001181.0110551-.00896063.02-.02.02-.0110394 0-.02-.00896063-.02-.02v-.0585827h-.098622v.0585827c0 .0110551-.00896063.02-.02.02-.0110394 0-.02-.00896063-.02-.02v-.0585827h-.0986378v.0585827c0 .0110551-.00896063.02-.02.02-.0110394 0-.02-.00896063-.02-.02v-.0585827h-.0986457v.0585827c0 .0110551-.00894488.02-.02.02-.0110394 0-.02-.00896063-.02-.02v-.0585827h-.098622v.0585827c-.00001575.0110551-.00896063.02-.02.02-.0110394 0-.02-.00896063-.02-.02v-.0585827h-.0872953v.810925h.0872953v-.0585512c0-.0110394.00896063-.02.02-.02.0110394 0 .02.00897244.02.02v.0585512h.0986299v-.0585512c0-.0110394.00896063-.02.02-.02.0110394 0 .02.00897244.02.02v.0585512h.0986378v-.0585512c0-.0110394.00896063-.02.02-.02.0110394 0 .02.00897244.02.02v.0585512h.0986378v-.0585512c0-.0110394.00896063-.02.02-.02.0110394 0 .02.00897244.02.02v.0585512l.098622.00000394v-.0585551c0-.0110394.00897244-.02.02-.02.0110315 0 .02.00897244.02.02v.0585551h.0986496v-.0585551c0-.0110394.00897244-.02.02-.02.0110276 0 .02.00897244.02.02v.0585551h.098622v-.0585551c0-.0110394.00897244-.02.02-.02.0110276 0 .02.00897244.02.02v.0585551h.0986496zm.167276.00183465c.0509252.00942913.0896102.0541614.0896102.107776v.069l-.00000787.00062205h.0737126c.0110394 0 .02.0089685.02.02 0 .0110276-.00895669.0199961-.02.0199961h-.114327-1.36299-.114319c-.0110394 0-.02-.0089685-.02-.0199961 0-.0110315.00896063-.02.02-.02h.0737205l-.00000787-.00062598v-.069c0-.0536102.0386772-.0983425.0895866-.107772v-.812764h-.0485394c-.0226417 0-.0410551-.0184134-.0410551-.0410551v-.13711c0-.022622.0184134-.0410354.0410551-.0410354h.0546378v-.0862795h-.0191102c-.0313504 0-.0568465-.0255-.0568465-.0568583 0-.0140512.00512598-.0269252.0135984-.0368583-.00847638-.00992913-.0135984-.0228031-.0135984-.0368504 0-.0140551.00512598-.0269331.0136024-.0368701-.00847638-.00993307-.0136024-.022811-.0136024-.0368661 0-.0313583.0255039-.0568622.0568465-.0568622h.059v-.0898307c0-.0110394.00896063-.0199961.02-.0199961.0110394 0 .02.00895669.02.0199961v.0898307h.0590276c.0313504 0 .0568583.0255039.0568583.0568622-.00000787.0140512-.00513386.0269213-.0136063.0368504.00847638.00993307.0136063.022811.0136063.0368701-.00000787.0140512-.00513386.0269213-.0136063.0368504.00847638.00993307.0136063.022811.0136063.0368701-.00001575.0313622-.0255157.0568622-.056874.0568622h-.0190984v.0862795l.257886-.00000394v-.0862756h-.019126c-.0313504 0-.0568465-.0255-.0568465-.0568583 0-.0140551.00512598-.0269291.0135984-.0368622-.00847244-.00992913-.0135984-.0227992-.0135984-.0368465 0-.0140551.00512205-.026937.0135984-.036874-.00847638-.00993307-.0135984-.0228071-.0135984-.0368622 0-.0313583.0255-.0568622.0568465-.0568622h.0590157v-.0898307c0-.0110394.00896063-.0199961.02-.0199961.0110394 0 .02.00895669.02.0199961v.0898307h.0590118c.0313465 0 .0568583.0255039.0568583.0568622 0 .0140551-.00512598.0269331-.0135984.0368622.00847244.00993307.0135984.0228071.0135984.0368583 0 .0140551-.00512598.0269331-.0135984.0368622.00847244.00993307.0135984.0228071.0135984.0368583 0 .0313622-.0255.0568622-.0568583.0568622h-.0191142v.0862756h.257886v-.0862756h-.019122c-.0313504 0-.0568622-.0255-.0568622-.0568583 0-.0140551.00512992-.0269291.0136063-.0368622-.00847638-.00992913-.0136063-.0227992-.0136063-.0368465 0-.0140551.00512992-.026937.0136063-.036874-.00847638-.00993307-.0136063-.0228071-.0136063-.0368622 0-.0313583.0255118-.0568622.0568622-.0568622h.0590236v-.0898307c0-.0110394.0089685-.0199961.0199961-.0199961.0110315 0 .02.00895669.02.0199961v.0898307h.0590039c.0313583 0 .056874.0255039.056874.0568622 0 .0140551-.00512205.0269252-.0136024.0368583.00848031.00993307.0136024.0228071.0136024.0368622s-.00512205.0269252-.0136024.0368583c.00848031.00993307.0136024.0228071.0136024.0368622 0 .0313622-.0255157.0568622-.056874.0568622h-.0191142v.0862756l.257902-.00000394v-.0862717h-.0191299c-.0313583 0-.056874-.0255-.056874-.0568583 0-.0140551.00512992-.0269291.0136063-.0368622-.00847638-.00992913-.0136063-.0227992-.0136063-.0368465 0-.0140551.00512598-.026937.0136063-.036874-.00848031-.00993307-.0136063-.0228071-.0136063-.0368622 0-.0313583.0255118-.0568622.056874-.0568622h.0590197v-.0898307c0-.0110394.0089685-.0199961.02-.0199961.0110276 0 .0199961.00895669.0199961.0199961v.0898307h.0590157c.0313465 0 .0568583.0255039.0568583.0568622 0 .0140512-.00512598.0269252-.0136024.0368543.00847638.00993307.0136024.022811.0136024.0368661 0 .0140512-.00512598.0269252-.0136024.0368543.00847638.00993307.0136024.022811.0136024.0368661 0 .0313622-.0255157.0568622-.0568583.0568622h-.0191142v.0862717h.0546378c.0226417 0 .0410551.0184173.0410551.0410394v.13711c0 .0226417-.0184173.0410591-.0410551.0410591h-.0485551v.812764zm-1.24564-.852768.00061811-.00001181h.127295.138622.138646.138638.138622.13865.138638.138634.127276l.00072047.00001575h.0678346c.00054331 0 .00103937-.00051181.00103937-.00105512v-.13711c0-.00053937-.00049606-.00103937-.00103937-.00103937l-1.36211-.00000394c-.00053937 0-.00105512.00051575-.00105512.00103937v.13711c0 .00053937.00051575.00105512.00105512.00105512h.0679213zm.00061811.890961c-.0383701 0-.0695945.0312205-.0695945.0695945v.069l1.3636.00061024c.00029134 0 .0006063-.00030709.0006063-.00061024v-.069c0-.038374-.0312205-.0695945-.0695945-.0695945h-.127276-.13865-.138622-.13865-.138622-.138638-.138638-.13863-.127295zm.586366-.230469c-.00962598 0-.0191378-.00255512-.0275118-.00735039-.0128031-.00735827-.0219843-.0192756-.0258307-.0335276-.00384646-.0142598-.00191732-.0291772.00544488-.0419724l.0242205-.0419567c-.0186417-.00138976-.0347244-.0115118-.0440591-.0276693-.01-.0173307-.01-.0380157 0-.0553465l.0838622-.145067c.00987402-.0170709.0282638-.0276378.0479567-.0276378.00970472 0 .0192913.00258268.0277047.00745669.0264055.0153071.0354606.0492323.0201693.0756535l-.0358071.0620236c.028685.00208661.0514016.0261024.0514016.0552913 0 .011248-.00333071.0220276-.00965354.0312638l-.0699134.121122c-.00984646.0170906-.0282362.0277165-.0479843.0277165zm.0108465-.164654c.00715354 0 .013748.00380709.017315.0100157.00357087.00617717.00357087.0138071 0 .0199843l-.0414291.0717598c-.00201575.00351181-.00255906.0076378-.00147244.0115866.00107087.00394094.00359843.00723228.0071378.00927559.00234646.00135039.00492126.00202756.00758661.00202756.00548425 0 .0105669-.00294488.0133071-.00769685l.0703622-.12187c.00030315-.00055906.00066535-.00108268.00102756-.00159843.0018622-.0026063.00283465-.00570472.00283465-.00894488 0-.00851181-.00692913-.0154331-.0154449-.0154331l-.0305.00000787c-.00715748 0-.013748-.00380709-.0173189-.0100157-.00357087-.00617717-.00357087-.0138071 0-.0199843l.0530551-.0918976c.00425984-.00735039.00173622-.0167795-.00558661-.0210315-.00716535-.00416535-.0168858-.0014685-.021.00559843l-.0838465.145035c-.004.00691732-.0013189.0130276 0 .0153504.00283465.00490157.0078189.0078189.013315.0078189l.0306575.00001181zm.193902.235413h-.357453c-.0735118-.0005-.131012-.0581535-.131012-.131248.00029528-.0242913.00601575-.0456535.0175-.0655276l.178606-.30935c.0236378-.0409606.0661693-.0654173.113736-.0654173.0475669 0 .0900827.0244567.113736.0654173l.178606.30935c.0235669.0408031.0235394.0898071-.00005906.131055-.0233504.0408031-.0657795.0653583-.113528.0657205-.00003937 0-.00008268 0-.00013386 0zm-.17861-.531543c-.0331142 0-.0626811.0169685-.0790984.0454016l-.178602.30935c-.00807087.0139843-.0119331.0285315-.0121378.0457795 0 .0505827.0400394.0906496.0911535.091h.357236c.0338228-.00027559.0626063-.0168858.0790276-.0455827.0164567-.028752.0165-.0628346.0001378-.0911811l-.178606-.30935c-.0164291-.0284488-.046-.0454173-.0791102-.0454173zm-.586406-.378913h.0398071v-.0862598h-.0398071zm-.0591102-.233717c-.00929134 0-.0168465.00755512-.0168465.0168622 0 .00930709.00755512.0168583.0168465.0168583h.158028c.00929134 0 .0168622-.00755118.0168622-.0168425 0-.00930709-.00755512-.016878-.0168622-.016878h-.00001575-.158012zm0 .0737205c-.00929134 0-.0168465.00755512-.0168465.0168622 0 .00930709.00755512.0168583.0168465.0168583h.158028c.00929134 0 .0168622-.00755118.0168622-.0168583 0-.00930709-.00755512-.0168622-.0168622-.0168622h-.00001575-.158012zm0-.147441c-.00929134 0-.0168465.00755512-.0168465.0168622 0 .00930709.00755512.0168583.0168465.0168583h.158028c.00929134 0 .0168622-.00755118.0168622-.0168583 0-.00930709-.00755512-.0168622-.0168622-.0168622h-.0790276-.079zm.436799.307437h.0397874v-.0862598h-.0397874zm-.059126-.233717c-.00929134 0-.0168465.00755512-.0168465.0168622 0 .00930709.00755512.0168583.0168465.0168583h.158028c.00929134 0 .0168583-.00755118.0168583-.0168425 0-.00930709-.00755118-.016878-.0168583-.016878zm0 .0737205c-.00929134 0-.0168465.00755512-.0168465.0168622 0 .00930709.00755512.0168583.0168465.0168583h.158028c.00929134 0 .0168583-.00755118.0168583-.0168583 0-.00930709-.00755118-.0168622-.0168583-.0168622zm0-.147441c-.00929134 0-.0168465.00755512-.0168465.0168622 0 .00930709.00755512.0168583.0168465.0168583h.158028c.00929134 0 .0168583-.00755118.0168583-.0168583 0-.00930709-.00755118-.0168622-.0168583-.0168622h-.0790118-.0790157zm.436799.307437h.0397795v-.0862598h-.0397795zm-.059122-.233717c-.00929134 0-.0168465.00755512-.0168465.0168622 0 .00930709.00755512.0168583.0168465.0168583h.158024c.00930709 0 .0168583-.00755118.0168583-.0168425 0-.00930709-.00755118-.016878-.0168583-.016878zm0 .0737205c-.00929134 0-.0168465.00755512-.0168465.0168622 0 .00930709.00755512.0168583.0168465.0168583h.158024c.00930709 0 .0168583-.00755118.0168583-.0168583 0-.00930709-.00755118-.0168622-.0168583-.0168622zm0-.147441c-.00929134 0-.0168465.00755512-.0168465.0168622 0 .00930709.00755512.0168583.0168465.0168583h.158024c.00930709 0 .0168583-.00755118.0168583-.0168583 0-.00930709-.00755118-.0168622-.0168583-.0168622h-.0790039-.0790197zm.436811.307437h.0397717v-.0862598h-.0397717zm-.0591299-.233717c-.00929921.00000787-.0168425.00755906-.0168425.0168622 0 .00930709.00755118.0168583.0168583.0168583h.158016.00000787c.00929134 0 .0168465-.00755118.0168465-.0168425 0-.00930709-.00755512-.016878-.0168465-.016878h-.00000787-.158016-.00001575zm.00001575.0737205h-.00001575c-.00929921.00000787-.0168425.00755906-.0168425.0168622 0 .00930709.00755118.0168583.0168583.0168583h.158024c.00929134 0 .0168465-.00755118.0168465-.0168583 0-.00930709-.00755512-.0168622-.0168465-.0168622h-.00000787-.158016zm0-.147441c-.00930709 0-.0168583.00755512-.0168583.0168622 0 .00930315.00754331.0168504.0168425.0168583h.00001575.158016.00000787c.00929134 0 .0168465-.00755118.0168465-.0168583 0-.00930709-.00755512-.0168622-.0168465-.0168622h-.0790197-.0790039z" fill="#010103"/><path d="m.840472 1.24928.0703622-.12187c.00030315-.00055906.00066535-.00108268.00102756-.00159843.0018622-.0026063.00283465-.00570472.00283465-.00894488 0-.00851181-.00692913-.0154331-.0154449-.0154331l-.0305.00000787c-.00715748 0-.013748-.00380709-.0173189-.0100157-.00357087-.00617717-.00357087-.0138071 0-.0199843l.0530551-.0918976c.00425984-.00735039.00173622-.0167795-.00558661-.0210315-.00716535-.00416535-.0168858-.0014685-.021.00559843l-.0838465.145035c-.004.00691732-.0013189.0130276 0 .0153504.00283465.00490157.0078189.0078189.013315.0078189l.0306575.00001181c.00715354 0 .013748.00380709.017315.0100157.00357087.00617717.00357087.0138071 0 .0199843l-.0414291.0717598c-.00201575.00351181-.00255906.0076378-.00147244.0115866.00107087.00394094.00359843.00723228.0071378.00927559.00234646.00135039.00492126.00202756.00758661.00202756.00548425 0 .0105669-.00294488.0133071-.00769685z" fill="#fff"/><path d="m.967043.86161.178606.30935c.0235669.0408031.0235394.0898071-.00005906.131055-.0233504.0408031-.0657795.0653583-.113528.0657205h-.00013386-.357453c-.0735118-.0005-.131012-.0581535-.131012-.131248.00029528-.0242913.00601575-.0456535.0175-.0655276l.178606-.30935c.0236378-.0409606.0661693-.0654173.113736-.0654173.0475669 0 .0900827.0244567.113736.0654173zm.351516.625807v-.0585551c0-.0110394.0089685-.02.02-.02.0110276 0 .02.00897244.02.02v.0585551h.0872756v-.810929h-.0872756v.0585827c0 .0110551-.00897244.02-.02.02-.0110394 0-.02-.00896063-.02-.02v-.0585827h-.0986339v.0585827c.00001181.0110551-.00896063.02-.02.02-.0110394 0-.02-.00896063-.02-.02v-.0585827h-.0986378v.0585827c0 .0110551-.00895669.02-.02.02-.0110394 0-.02-.00896063-.02-.02v-.0585827h-.0986496v.0585827c.00001181.0110551-.00896063.02-.02.02-.0110394 0-.02-.00896063-.02-.02v-.0585827h-.098622v.0585827c0 .0110551-.00896063.02-.02.02-.0110394 0-.02-.00896063-.02-.02v-.0585827h-.0986378v.0585827c0 .0110551-.00896063.02-.02.02-.0110394 0-.02-.00896063-.02-.02v-.0585827h-.0986457v.0585827c0 .0110551-.00894488.02-.02.02-.0110394 0-.02-.00896063-.02-.02v-.0585827h-.098622v.0585827c-.00001575.0110551-.00896063.02-.02.02-.0110394 0-.02-.00896063-.02-.02v-.0585827h-.0872953v.810925h.0872953v-.0585512c0-.0110394.00896063-.02.02-.02.0110394 0 .02.00897244.02.02v.0585512h.0986299v-.0585512c0-.0110394.00896063-.02.02-.02.0110394 0 .02.00897244.02.02v.0585512h.0986378v-.0585512c0-.0110394.00896063-.02.02-.02.0110394 0 .02.00897244.02.02v.0585512h.0986378v-.0585512c0-.0110394.00896063-.02.02-.02.0110394 0 .02.00897244.02.02v.0585512l.098622.00000394v-.0585551c0-.0110394.00897244-.02.02-.02.0110315 0 .02.00897244.02.02v.0585551h.0986496v-.0585551c0-.0110394.00897244-.02.02-.02.0110276 0 .02.00897244.02.02v.0585551h.098622v-.0585551c0-.0110394.00897244-.02.02-.02.0110276 0 .02.00897244.02.02v.0585551h.0986496z" fill="#fff"/></g></svg>